<?xml version="1.0" encoding="utf-8"?>
<!-- Generator: Adobe Illustrator 23.0.6, SVG Export Plug-In . SVG Version: 6.00 Build 0)  -->
<svg version="1.1"
	 id="svg2" xmlns:cc="http://creativecommons.org/ns#" xmlns:dc="http://purl.org/dc/elements/1.1/" xmlns:rdf="http://www.w3.org/1999/02/22-rdf-syntax-ns#" xmlns:svg="http://www.w3.org/2000/svg"
	 xmlns="http://www.w3.org/2000/svg" xmlns:xlink="http://www.w3.org/1999/xlink" x="0px" y="0px" width="215.3px" height="43px"
	 viewBox="0 0 215.3 43" style="enable-background:new 0 0 215.3 43;" xml:space="preserve">
<style type="text/css">
	.st0{fill:#6FC72D;}
	.st1{fill:#1F3862;}
</style>
<g id="g10" transform="matrix(1.3333333,0,0,-1.3333333,0,378.01333)">
	<g id="g12" transform="scale(0.1)">
		<path id="path14" class="st0" d="M204.4,2535.7h45.8v211l-45.8-27.3V2535.7"/>
		<path id="path16" class="st0" d="M204.4,2828.3V2774l45.8-27.3v81.6H204.4"/>
		<path id="path18" class="st0" d="M91.8,2719.3L91.8,2719.3l-45.9,0v108.9H0l0-154.8h0h91.8c25.3,0,45.9-20.5,45.9-45.9
			s-20.5-45.9-45.9-45.9v0H0v-45.9h91.8v-0.1c50.7,0,91.8,41.1,91.8,91.8C183.6,2678.2,142.5,2719.3,91.8,2719.3"/>
		<path id="path20" class="st1" d="M372.9,2719.3L372.9,2719.3l-45.9,0v108.9H281v-154.8l0,0h91.8c25.3,0,45.9-20.5,45.9-45.9
			s-20.5-45.9-45.9-45.9v0H281v-45.9h91.8v-0.1c50.7,0,91.8,41.1,91.8,91.8C464.7,2678.2,423.6,2719.3,372.9,2719.3"/>
		<path id="path22" class="st1" d="M561.8,2719.3L561.8,2719.3l-45.9,0v108.9H470v-154.8l0,0h91.8c25.3,0,45.9-20.5,45.9-45.9
			s-20.5-45.9-45.9-45.9v0H470v-45.9h91.8v-0.1c50.7,0,91.8,41.1,91.8,91.8C653.6,2678.2,612.5,2719.3,561.8,2719.3"/>
		<path id="path24" class="st1" d="M701.8,2828.2h35.6v-6.4h-28.2v-26.7h26.9v-6.4h-26.9v-35.3h-7.4V2828.2"/>
		<path id="path26" class="st1" d="M781.9,2784.6c0,9.5-3.9,19-13.9,19c-10,0-16.1-10-16.1-19H781.9z M785.2,2755.1
			c-4.7-1.9-10.8-3-15.9-3c-18.1,0-24.9,12.2-24.9,28.6c0,16.7,9.2,28.6,23,28.6c15.4,0,21.8-12.4,21.8-27.1v-3.4h-37.4
			c0-11.6,6.2-20.9,18-20.9c4.9,0,12.1,2,15.3,4.1L785.2,2755.1"/>
		<path id="path28" class="st1" d="M821.1,2757.9c12,0,16.2,12.9,16.2,22.8c0,10-4.2,22.8-16.2,22.8c-12.9,0-16.2-12.2-16.2-22.8
			C804.9,2770.1,808.3,2757.9,821.1,2757.9z M844.1,2753.4h-6.8v8.7h-0.2c-3.6-7-9.2-10-17-10c-15,0-22.5,12.4-22.5,28.6
			c0,16.6,6.4,28.6,22.5,28.6c10.7,0,16.1-7.8,17-10.5h0.2v34.9h6.8V2753.4"/>
		<path id="path30" class="st1" d="M892.6,2784.6c0,9.5-3.9,19-13.9,19c-10,0-16.1-10-16.1-19H892.6z M895.9,2755.1
			c-4.7-1.9-10.8-3-15.9-3c-18.1,0-24.9,12.2-24.9,28.6c0,16.7,9.2,28.6,23,28.6c15.4,0,21.8-12.4,21.8-27.1v-3.4h-37.4
			c0-11.6,6.2-20.9,18-20.9c4.9,0,12.1,2,15.3,4.1V2755.1"/>
		<path id="path32" class="st1" d="M910.8,2795.9c0,6,0,8.3-0.4,12.2h6.8v-10.5h0.2c2.5,6.1,7.1,11.8,14,11.8c1.6,0,3.5-0.3,4.7-0.6
			v-7.1c-1.4,0.4-3.2,0.6-4.9,0.6c-10.7,0-13.6-12-13.6-21.9v-27h-6.8L910.8,2795.9"/>
		<path id="path34" class="st1" d="M974.2,2781h-1.9c-11.7,0-25.6-1.2-25.6-13.2c0-7.2,5.1-9.9,11.4-9.9c15.9,0,16.2,13.8,16.2,19.7
			L974.2,2781z M974.8,2762.2h-0.2c-3-6.5-10.6-10.1-17.4-10.1c-15.5,0-18,10.5-18,15.4c0,18.3,19.5,19.2,33.7,19.2h1.3v2.8
			c0,9.3-3.3,14-12.4,14c-5.7,0-11-1.3-16.1-4.5v6.5c4.2,2,11.3,3.8,16.1,3.8c13.5,0,19.2-6.1,19.2-20.4v-24.1c0-4.4,0-7.7,0.5-11.5
			h-6.6V2762.2"/>
		<path id="path36" class="st1" d="M994.8,2833.8h6.8v-80.4h-6.8V2833.8"/>
		<path id="path38" class="st1" d="M1050.3,2828.2h7.4v-74.8h-7.4V2828.2"/>
		<path id="path40" class="st1" d="M1073.1,2795.2c0,4.2,0,8.5-0.4,12.9h6.5v-9.8h0.2c2.3,4.9,6.3,11,17.7,11c13.5,0,18.7-9,18.7-21
			v-34.9h-6.8v33.2c0,10.3-3.6,16.9-13,16.9c-12.3,0-16.2-10.8-16.2-19.9v-30.2h-6.8L1073.1,2795.2"/>
		<path id="path42" class="st1" d="M1125.8,2761.3c4.1-2,9-3.4,14.3-3.4c6.4,0,12.1,3.5,12.1,9.8c0,13-26.3,10.9-26.3,26.8
			c0,10.8,8.8,14.9,17.8,14.9c2.9,0,8.7-0.6,13.5-2.5l-0.6-5.9c-3.5,1.6-8.4,2.6-12.1,2.6c-7,0-11.8-2.1-11.8-9.1
			c0-10.2,26.9-8.9,26.9-26.8c0-11.6-10.8-15.5-19.1-15.5c-5.3,0-10.5,0.6-15.3,2.6L1125.8,2761.3"/>
		<path id="path44" class="st1" d="M1194.6,2802.3h-12.4v-35.4c0-4.9,1.8-9,7.3-9c2.6,0,4.3,0.5,6.2,1.3l0.4-5.6
			c-1.6-0.6-4.9-1.5-8.3-1.5c-12,0-12.4,8.3-12.4,18.2v31.9h-10.7v5.8h10.7v13.2l6.8,2.4v-15.5h12.4L1194.6,2802.3"/>
		<path id="path46" class="st1" d="M1204.7,2808.1h6.8v-54.7h-6.8V2808.1z M1211.5,2822.7h-6.8v9h6.8V2822.7"/>
		<path id="path48" class="st1" d="M1250,2802.3h-12.4v-35.4c0-4.9,1.8-9,7.3-9c2.6,0,4.3,0.5,6.2,1.3l0.4-5.6
			c-1.6-0.6-4.9-1.5-8.3-1.5c-12,0-12.4,8.3-12.4,18.2v31.9h-10.7v5.8h10.7v13.2l6.8,2.4v-15.5h12.4V2802.3"/>
		<path id="path50" class="st1" d="M1302,2766.3c0-4.2,0-8.5,0.4-12.9h-6.5v9.8h-0.2c-2.3-4.9-6.3-11-17.7-11
			c-13.5,0-18.7,9-18.7,21v34.9h6.8v-33.2c0-10.3,3.6-16.9,13-16.9c12.3,0,16.2,10.8,16.2,19.9v30.2h6.8V2766.3"/>
		<path id="path52" class="st1" d="M1340.6,2802.3h-12.4v-35.4c0-4.9,1.8-9,7.3-9c2.6,0,4.3,0.5,6.2,1.3l0.4-5.6
			c-1.6-0.6-4.9-1.5-8.3-1.5c-12,0-12.4,8.3-12.4,18.2v31.9h-10.7v5.8h10.7v13.2l6.8,2.4v-15.5h12.4V2802.3"/>
		<path id="path54" class="st1" d="M1383.1,2784.6c0,9.5-3.9,19-13.9,19c-10,0-16.1-10-16.1-19H1383.1z M1386.5,2755.1
			c-4.7-1.9-10.8-3-15.9-3c-18.1,0-24.9,12.2-24.9,28.6c0,16.7,9.2,28.6,23,28.6c15.4,0,21.8-12.4,21.8-27.1v-3.4h-37.4
			c0-11.6,6.2-20.9,18-20.9c4.9,0,12.1,2,15.3,4.1L1386.5,2755.1"/>
		<path id="path56" class="st1" d="M1440,2802.3h-11v5.8h11v4c0,11.5,0.4,23,14.5,23c2.1,0,5-0.3,6.3-1.1l-0.4-5.9
			c-1.4,0.8-3.4,1.2-5.4,1.2c-9.2,0-8.3-10-8.3-16.5v-4.7h12.3v-5.8h-12.3v-48.9h-6.8L1440,2802.3"/>
		<path id="path58" class="st1" d="M1488.7,2757.9c11.8,0,18.1,10.2,18.1,22.8c0,12.6-6.3,22.8-18.1,22.8
			c-11.8,0-18.1-10.2-18.1-22.8C1470.6,2768.1,1476.9,2757.9,1488.7,2757.9z M1488.7,2809.4c17.7,0,25.5-13.7,25.5-28.6
			c0-14.9-7.8-28.6-25.5-28.6c-17.7,0-25.5,13.7-25.5,28.6C1463.2,2795.6,1471,2809.4,1488.7,2809.4"/>
		<path id="path60" class="st1" d="M1525.3,2795.9c0,6,0,8.3-0.4,12.2h6.8v-10.5h0.2c2.5,6.1,7.1,11.8,14,11.8
			c1.6,0,3.5-0.3,4.7-0.6v-7.1c-1.4,0.4-3.2,0.6-4.9,0.6c-10.7,0-13.6-12-13.6-21.9v-27h-6.8L1525.3,2795.9"/>
		<path id="path62" class="st1" d="M730,2644.6h-7.9l-27.9,74.8h7.8l24.1-67.4l25,67.4h7.3L730,2644.6"/>
		<path id="path64" class="st1" d="M782.8,2649.1c11.8,0,18.1,10.2,18.1,22.8c0,12.7-6.3,22.8-18.1,22.8
			c-11.8,0-18.1-10.2-18.1-22.8C764.7,2659.3,771,2649.1,782.8,2649.1L782.8,2649.1z M782.8,2700.5c17.7,0,25.5-13.7,25.5-28.6
			c0-14.9-7.8-28.6-25.5-28.6c-17.7,0-25.5,13.7-25.5,28.6C757.3,2686.8,765.1,2700.5,782.8,2700.5"/>
		<path id="path66" class="st1" d="M855.8,2692c-3.6,1.6-8,2.8-11.7,2.8c-13.2,0-20.6-9.5-20.6-22.8c0-12.4,7.5-22.8,19.8-22.8
			c4.3,0,8.3,1,12.3,2.5l0.6-6.3c-4.6-1.6-8.9-1.9-14-1.9c-17.6,0-26.2,13.4-26.2,28.6c0,16.8,10.8,28.6,27,28.6
			c6.5,0,11.3-1.5,13.2-2.1L855.8,2692"/>
		<path id="path68" class="st1" d="M897.6,2672.1h-1.9c-11.7,0-25.6-1.2-25.6-13.2c0-7.2,5.1-9.9,11.4-9.9
			c15.9,0,16.2,13.8,16.2,19.7V2672.1z M898.2,2653.4H898c-3-6.5-10.6-10.1-17.4-10.1c-15.5,0-18,10.5-18,15.4
			c0,18.3,19.5,19.2,33.7,19.2h1.3v2.8c0,9.3-3.3,14-12.4,14c-5.7,0-11-1.3-16.1-4.5v6.5c4.2,2,11.3,3.8,16.1,3.8
			c13.5,0,19.2-6.1,19.2-20.4v-24.1c0-4.4,0-7.7,0.5-11.5h-6.6V2653.4"/>
		<path id="path70" class="st1" d="M941.6,2693.5h-12.4v-35.4c0-4.9,1.8-9,7.3-9c2.6,0,4.3,0.5,6.2,1.3l0.4-5.6
			c-1.6-0.6-4.9-1.5-8.3-1.5c-12,0-12.4,8.3-12.4,18.2v31.9h-10.7v5.8h10.7v13.2l6.8,2.4v-15.5h12.4L941.6,2693.5"/>
		<path id="path72" class="st1" d="M951.7,2699.3h6.8v-54.7h-6.8V2699.3z M958.4,2713.8h-6.8v9h6.8V2713.8"/>
		<path id="path74" class="st1" d="M995.2,2649.1c11.8,0,18.1,10.2,18.1,22.8c0,12.7-6.3,22.8-18.1,22.8
			c-11.8,0-18.1-10.2-18.1-22.8C977,2659.3,983.4,2649.1,995.2,2649.1L995.2,2649.1z M995.2,2700.5c17.7,0,25.5-13.7,25.5-28.6
			c0-14.9-7.8-28.6-25.5-28.6c-17.7,0-25.5,13.7-25.5,28.6C969.6,2686.8,977.5,2700.5,995.2,2700.5"/>
		<path id="path76" class="st1" d="M1031.7,2686.4c0,4.2,0,8.5-0.4,12.9h6.5v-9.8h0.2c2.3,4.9,6.3,11,17.7,11c13.5,0,18.7-9,18.7-21
			v-34.9h-6.8v33.2c0,10.3-3.6,16.9-13,16.9c-12.3,0-16.2-10.8-16.2-19.9v-30.2h-6.8L1031.7,2686.4"/>
		<path id="path78" class="st1" d="M1119.2,2672.1h-1.9c-11.7,0-25.6-1.2-25.6-13.2c0-7.2,5.1-9.9,11.4-9.9
			c15.9,0,16.2,13.8,16.2,19.7L1119.2,2672.1z M1119.9,2653.4h-0.2c-3-6.5-10.6-10.1-17.4-10.1c-15.5,0-18,10.5-18,15.4
			c0,18.3,19.5,19.2,33.7,19.2h1.3v2.8c0,9.3-3.3,14-12.4,14c-5.7,0-11-1.3-16.1-4.5v6.5c4.2,2,11.3,3.8,16.1,3.8
			c13.5,0,19.2-6.1,19.2-20.4v-24.1c0-4.4,0-7.7,0.5-11.5h-6.6V2653.4"/>
		<path id="path80" class="st1" d="M1139.8,2725h6.8v-80.4h-6.8V2725"/>
		<path id="path82" class="st1" d="M1196.3,2719.4h36.7v-6.4h-29.3v-26.7h27.8v-6.4h-27.8V2651h30.6v-6.4h-37.9V2719.4"/>
		<path id="path84" class="st1" d="M1265.7,2649.1c12,0,16.2,12.9,16.2,22.8c0,10-4.2,22.8-16.2,22.8c-12.9,0-16.2-12.2-16.2-22.8
			C1249.5,2661.3,1252.9,2649.1,1265.7,2649.1L1265.7,2649.1z M1288.7,2644.6h-6.8v8.7h-0.2c-3.6-7-9.2-10-17-10
			c-15,0-22.5,12.4-22.5,28.6c0,16.6,6.4,28.6,22.5,28.6c10.7,0,16.1-7.8,17-10.5h0.2v34.9h6.8V2644.6"/>
		<path id="path86" class="st1" d="M1345.3,2657.4c0-4.2,0-8.5,0.4-12.9h-6.5v9.8h-0.2c-2.3-4.9-6.3-11-17.7-11
			c-13.5,0-18.7,9-18.7,21v34.9h6.8V2666c0-10.3,3.6-16.9,13-16.9c12.3,0,16.2,10.8,16.2,19.9v30.2h6.8V2657.4"/>
		<path id="path88" class="st1" d="M1395.9,2692c-3.6,1.6-8,2.8-11.7,2.8c-13.2,0-20.6-9.5-20.6-22.8c0-12.4,7.5-22.8,19.8-22.8
			c4.3,0,8.3,1,12.3,2.5l0.6-6.3c-4.6-1.6-8.9-1.9-14-1.9c-17.6,0-26.2,13.4-26.2,28.6c0,16.8,10.8,28.6,27,28.6
			c6.5,0,11.3-1.5,13.2-2.1L1395.9,2692"/>
		<path id="path90" class="st1" d="M1437.6,2672.1h-1.9c-11.7,0-25.6-1.2-25.6-13.2c0-7.2,5.1-9.9,11.4-9.9
			c15.9,0,16.2,13.8,16.2,19.7V2672.1z M1438.3,2653.4h-0.2c-3-6.5-10.6-10.1-17.4-10.1c-15.5,0-18,10.5-18,15.4
			c0,18.3,19.5,19.2,33.7,19.2h1.3v2.8c0,9.3-3.3,14-12.4,14c-5.7,0-11-1.3-16.1-4.5v6.5c4.2,2,11.3,3.8,16.1,3.8
			c13.5,0,19.2-6.1,19.2-20.4v-24.1c0-4.4,0-7.7,0.5-11.5h-6.6V2653.4"/>
		<path id="path92" class="st1" d="M1481.6,2693.5h-12.4v-35.4c0-4.9,1.8-9,7.3-9c2.6,0,4.3,0.5,6.2,1.3l0.4-5.6
			c-1.6-0.6-4.9-1.5-8.3-1.5c-12,0-12.4,8.3-12.4,18.2v31.9h-10.7v5.8h10.7v13.2l6.8,2.4v-15.5h12.4V2693.5"/>
		<path id="path94" class="st1" d="M1491.7,2699.3h6.8v-54.7h-6.8V2699.3z M1498.5,2713.8h-6.8v9h6.8V2713.8"/>
		<path id="path96" class="st1" d="M1535.2,2649.1c11.8,0,18.1,10.2,18.1,22.8c0,12.7-6.3,22.8-18.1,22.8s-18.1-10.2-18.1-22.8
			C1517.1,2659.3,1523.4,2649.1,1535.2,2649.1L1535.2,2649.1z M1535.2,2700.5c17.7,0,25.5-13.7,25.5-28.6c0-14.9-7.8-28.6-25.5-28.6
			c-17.7,0-25.5,13.7-25.5,28.6C1509.7,2686.8,1517.5,2700.5,1535.2,2700.5"/>
		<path id="path98" class="st1" d="M1571.7,2686.4c0,4.2,0,8.5-0.4,12.9h6.5v-9.8h0.2c2.2,4.9,6.3,11,17.7,11c13.5,0,18.7-9,18.7-21
			v-34.9h-6.8v33.2c0,10.3-3.6,16.9-13,16.9c-12.3,0-16.2-10.8-16.2-19.9v-30.2h-6.8L1571.7,2686.4"/>
		<path id="path100" class="st1" d="M732.8,2563.3h-1.9c-11.7,0-25.6-1.2-25.6-13.2c0-7.2,5.1-9.9,11.4-9.9
			c15.9,0,16.2,13.8,16.2,19.7V2563.3z M733.4,2544.5h-0.2c-3-6.5-10.6-10.1-17.4-10.1c-15.5,0-18,10.5-18,15.4
			c0,18.3,19.5,19.2,33.7,19.2h1.3v2.8c0,9.3-3.3,14-12.4,14c-5.7,0-11-1.3-16.1-4.5v6.5c4.2,2,11.3,3.8,16.1,3.8
			c13.5,0,19.2-6.1,19.2-20.4v-24.1c0-4.4,0-7.7,0.5-11.5h-6.6L733.4,2544.5"/>
		<path id="path102" class="st1" d="M753.4,2577.6c0,4.2,0,8.5-0.4,12.9h6.5v-9.8h0.2c2.3,4.9,6.3,11,17.7,11c13.5,0,18.7-9,18.7-21
			v-34.9h-6.8v33.2c0,10.3-3.6,16.9-13,16.9c-12.3,0-16.2-10.8-16.2-19.9v-30.2h-6.8L753.4,2577.6"/>
		<path id="path104" class="st1" d="M831.2,2540.3c12,0,16.2,12.9,16.2,22.8c0,10-4.2,22.8-16.2,22.8c-12.9,0-16.2-12.2-16.2-22.8
			C815,2552.5,818.3,2540.3,831.2,2540.3z M854.2,2535.8h-6.8v8.7h-0.2c-3.6-7-9.2-10-17-10c-15,0-22.5,12.4-22.5,28.6
			c0,16.6,6.4,28.6,22.5,28.6c10.7,0,16.1-7.8,17-10.5h0.2v34.9h6.8V2535.8"/>
		<path id="path106" class="st1" d="M917.1,2604.1H895v6.4h51.6v-6.4h-22.1v-68.4h-7.4V2604.1"/>
		<path id="path108" class="st1" d="M947.1,2578.2c0,6,0,8.3-0.4,12.2h6.8v-10.5h0.2c2.5,6.1,7.1,11.8,14,11.8
			c1.6,0,3.5-0.3,4.7-0.6v-7.1c-1.4,0.4-3.2,0.6-4.9,0.6c-10.7,0-13.6-12-13.6-21.9v-27h-6.8V2578.2"/>
		<path id="path110" class="st1" d="M1010.5,2563.3h-1.9c-11.7,0-25.6-1.2-25.6-13.2c0-7.2,5.1-9.9,11.4-9.9
			c15.9,0,16.2,13.8,16.2,19.7V2563.3z M1011.1,2544.5h-0.2c-3-6.5-10.6-10.1-17.4-10.1c-15.5,0-18,10.5-18,15.4
			c0,18.3,19.5,19.2,33.7,19.2h1.3v2.8c0,9.3-3.3,14-12.4,14c-5.7,0-11-1.3-16.1-4.5v6.5c4.2,2,11.3,3.8,16.1,3.8
			c13.5,0,19.2-6.1,19.2-20.4v-24.1c0-4.4,0-7.7,0.5-11.5h-6.6V2544.5"/>
		<path id="path112" class="st1" d="M1031.1,2590.4h6.8v-54.7h-6.8V2590.4z M1037.8,2605h-6.8v9h6.8V2605"/>
		<path id="path114" class="st1" d="M1052.2,2577.6c0,4.2,0,8.5-0.4,12.9h6.5v-9.8h0.2c2.3,4.9,6.3,11,17.7,11
			c13.5,0,18.7-9,18.7-21v-34.9h-6.8v33.2c0,10.3-3.6,16.9-13,16.9c-12.3,0-16.2-10.8-16.2-19.9v-30.2h-6.8L1052.2,2577.6"/>
		<path id="path116" class="st1" d="M1109.1,2590.4h6.8v-54.7h-6.8V2590.4z M1115.9,2605h-6.8v9h6.8V2605"/>
		<path id="path118" class="st1" d="M1130.2,2577.6c0,4.2,0,8.5-0.4,12.9h6.5v-9.8h0.2c2.3,4.9,6.3,11,17.7,11
			c13.5,0,18.7-9,18.7-21v-34.9h-6.8v33.2c0,10.3-3.6,16.9-13,16.9c-12.3,0-16.2-10.8-16.2-19.9v-30.2h-6.8V2577.6"/>
		<path id="path120" class="st1" d="M1207.5,2541.5c12.2,0,16.6,11.6,16.6,21.5c0,13.2-3.9,22.8-16.2,22.8
			c-12.9,0-16.2-12.2-16.2-22.8C1191.7,2552.4,1196,2541.5,1207.5,2541.5L1207.5,2541.5z M1230.8,2540.3c0-15.2-6.9-27.7-25.6-27.7
			c-7.2,0-13.7,2-16.5,2.9l0.5,6.8c4.2-2.1,10.2-3.9,16.1-3.9c17.4,0,18.9,12.6,18.9,28.1h-0.2c-3.6-7.9-9.6-10.7-16.6-10.7
			c-17.5,0-23.1,15.2-23.1,27.3c0,16.6,6.4,28.6,22.5,28.6c7.3,0,12-1,17-7.5h0.2v6.2h6.8V2540.3"/>
	</g>
</g>
</svg>
